<svg xmlns="http://www.w3.org/2000/svg" height="current" width="current" viewBox="0 0 247.67 180.37"><defs><style>.cls-1{fill:#221e1f;}</style></defs><g id="logo" data-name="레이어 2"><g id="Layer_1" data-name="Layer 1"><path class="cls-1" d="M48.52,36.78V16.86c0-.83,0-1.84-.13-3a10.67,10.67,0,0,0-1.06-3.56,6.18,6.18,0,0,0-2.46-3A9.9,9.9,0,0,0,40,6.12,9.45,9.45,0,0,0,35,7.29a6.53,6.53,0,0,0-2.59,3,12.93,12.93,0,0,0-.93,3.56c-.08,1.16-.15,2.15-.19,3v20h-6.5V16.86a19.35,19.35,0,0,0-.13-3.95A10.48,10.48,0,0,0,23.31,9.5a6.75,6.75,0,0,0-3-2.65,9.85,9.85,0,0,0-3.71-.73,9.1,9.1,0,0,0-5.12,1.23,8.09,8.09,0,0,0-2.69,3.13,10,10,0,0,0-1,3.47,14.36,14.36,0,0,0-.19,2.84v20H1.07V1h6.2V4.83h.12c.3-.38.71-.87,1.23-1.48A13.71,13.71,0,0,1,10.54,1.8a11.19,11.19,0,0,1,3-1.29A15.07,15.07,0,0,1,17.66,0a14.77,14.77,0,0,1,6.48,1.48A9.91,9.91,0,0,1,28.74,6,17.6,17.6,0,0,1,30,4.26a9.77,9.77,0,0,1,2-2A10.63,10.63,0,0,1,35.57.63,16.49,16.49,0,0,1,40.51,0q9,.12,12.59,6.47A17.85,17.85,0,0,1,55,15.18v21.6Z"/><path class="cls-1" d="M93.09,36.78V31.25H93a12.31,12.31,0,0,1-5,4.81,14.37,14.37,0,0,1-6.77,1.63q-8.78-.18-13.52-5.84A18.67,18.67,0,0,1,62.76,19,20.63,20.63,0,0,1,67.32,6.12Q71.91.19,81.18,0A15.66,15.66,0,0,1,88,1.48,12.51,12.51,0,0,1,93,6h.12V1h6.5V36.78ZM93.22,19a13,13,0,0,0-3.47-9.32,11.66,11.66,0,0,0-8.58-3.51q-6,.13-8.91,4.21a14.33,14.33,0,0,0-3,8.63,12.85,12.85,0,0,0,3.37,8.66,10.67,10.67,0,0,0,8.49,3.95,11.28,11.28,0,0,0,8.64-3.82A12.4,12.4,0,0,0,93.22,19Z"/><path class="cls-1" d="M123,10.48c-.47-2.9-1.94-4.36-4.43-4.36a3.92,3.92,0,0,0-2.85,1,3.41,3.41,0,0,0-1.18,2.78,3.17,3.17,0,0,0,1.61,3,16.23,16.23,0,0,0,3.75,1.64,27,27,0,0,1,2.8.89,12.29,12.29,0,0,1,3.45,2,10.61,10.61,0,0,1,3,3.35,11.2,11.2,0,0,1,1.19,5.36,11.74,11.74,0,0,1-3,8.08q-3,3.31-8.64,3.38A12.15,12.15,0,0,1,115,37a9.43,9.43,0,0,1-2.08-.82,19.54,19.54,0,0,1-2-1.16,10.7,10.7,0,0,1-3.18-3.94A12.64,12.64,0,0,1,106.45,25h6.49q.44,6.42,5.88,6.54a4.8,4.8,0,0,0,3.64-1.36,4.65,4.65,0,0,0,1.38-3.57,4.24,4.24,0,0,0-1.67-3.54,19.36,19.36,0,0,0-4.36-2c-1-.38-2-.81-3.08-1.29A13.07,13.07,0,0,1,111.56,18a9.52,9.52,0,0,1-2.5-3,9.88,9.88,0,0,1-1-4.68,9.77,9.77,0,0,1,3-7.17A10.36,10.36,0,0,1,118.89,0a14.33,14.33,0,0,1,3.38.44,9.18,9.18,0,0,1,3.38,1.74,8.76,8.76,0,0,1,2.74,3.19,11.78,11.78,0,0,1,1.13,5.11Z"/><path class="cls-1" d="M150.42,10.48c-.47-2.9-1.94-4.36-4.43-4.36a3.92,3.92,0,0,0-2.85,1A3.41,3.41,0,0,0,142,9.94a3.16,3.16,0,0,0,1.62,3,16,16,0,0,0,3.74,1.64,27,27,0,0,1,2.8.89,12.29,12.29,0,0,1,3.45,2,10.61,10.61,0,0,1,3,3.35,11.2,11.2,0,0,1,1.19,5.36,11.74,11.74,0,0,1-3,8.08q-3,3.31-8.64,3.38a12.15,12.15,0,0,1-3.67-.66,9.17,9.17,0,0,1-2.07-.82,18.69,18.69,0,0,1-2-1.16,10.8,10.8,0,0,1-3.18-3.94A12.64,12.64,0,0,1,133.85,25h6.5q.42,6.42,5.87,6.54a4.8,4.8,0,0,0,3.64-1.36,4.65,4.65,0,0,0,1.38-3.57,4.24,4.24,0,0,0-1.67-3.54,19.36,19.36,0,0,0-4.36-2c-1-.38-2-.81-3.08-1.29A13.07,13.07,0,0,1,139,18a9.36,9.36,0,0,1-2.49-3,9.76,9.76,0,0,1-1-4.68,9.77,9.77,0,0,1,3-7.17A10.37,10.37,0,0,1,146.3,0a14.32,14.32,0,0,1,3.37.44,9.18,9.18,0,0,1,3.38,1.74,8.76,8.76,0,0,1,2.74,3.19,11.78,11.78,0,0,1,1.13,5.11Z"/><path class="cls-1" d="M30.34,108.12v-5.53h-.13a12.19,12.19,0,0,1-5,4.81A14.33,14.33,0,0,1,18.43,109q-8.79-.18-13.53-5.84A18.67,18.67,0,0,1,0,90.34,20.63,20.63,0,0,1,4.56,77.46q4.59-5.92,13.87-6.12a15.65,15.65,0,0,1,6.82,1.48,12.44,12.44,0,0,1,5,4.51h.13v-5h6.49v35.83Zm.12-17.83A13,13,0,0,0,27,81a11.69,11.69,0,0,0-8.58-3.51q-6,.14-8.92,4.21a14.29,14.29,0,0,0-3,8.63A12.81,12.81,0,0,0,9.87,99a10.64,10.64,0,0,0,8.49,4A11.27,11.27,0,0,0,27,99.08a12.42,12.42,0,0,0,3.46-8.78Z"/><path class="cls-1" d="M70.87,108.12V88.67q0-1.17-.12-3a11,11,0,0,0-1-3.66,7.35,7.35,0,0,0-2.51-3.26,9.27,9.27,0,0,0-5.08-1.29q-8.91.14-9.15,11.14v19.52h-6.5V72.29h6.08v3.82h.13a10.91,10.91,0,0,1,2.93-2.84,10,10,0,0,1,2.93-1.36,20.48,20.48,0,0,1,4.28-.57q8.32.12,12.26,6.41c1.38,2.19,2.12,5.24,2.2,9.15v21.22Z"/><path class="cls-1" d="M115.58,108.12V103h-.12a14.52,14.52,0,0,1-12.27,6q-8.72-.18-13.37-5.84a19.19,19.19,0,0,1-4.68-12.85,21,21,0,0,1,4.43-12.88q4.41-5.92,13.62-6.12,7.62.12,11.78,5.36h.13V60.29h6.49v47.83Zm0-17.83A13,13,0,0,0,112.13,81a11.69,11.69,0,0,0-8.58-3.51c-4,.09-7,1.49-8.91,4.21a14.31,14.31,0,0,0-3,8.63A12.9,12.9,0,0,0,95,99a10.67,10.67,0,0,0,8.49,4,11.27,11.27,0,0,0,8.64-3.83,12.41,12.41,0,0,0,3.45-8.78Z"/><path class="cls-1" d="M48.52,179.46V159.53c0-.82,0-1.83-.13-3a10.6,10.6,0,0,0-1.06-3.56,6.18,6.18,0,0,0-2.46-3A9.9,9.9,0,0,0,40,148.8,9.45,9.45,0,0,0,35,150a6.53,6.53,0,0,0-2.59,3,12.83,12.83,0,0,0-.93,3.56c-.08,1.16-.15,2.15-.19,3v20h-6.5V159.53a19.28,19.28,0,0,0-.13-3.94,10.4,10.4,0,0,0-1.37-3.41,6.75,6.75,0,0,0-3-2.65,9.85,9.85,0,0,0-3.71-.73A9.1,9.1,0,0,0,11.44,150a8,8,0,0,0-2.69,3.13,9.94,9.94,0,0,0-1,3.47,14.36,14.36,0,0,0-.19,2.84v20H1.07V143.63h6.2v3.88h.12c.3-.38.71-.87,1.23-1.48a13,13,0,0,1,1.92-1.55,11.52,11.52,0,0,1,3-1.3,15.49,15.49,0,0,1,4.16-.5,14.77,14.77,0,0,1,6.48,1.48,9.91,9.91,0,0,1,4.6,4.51A17.6,17.6,0,0,1,30,146.94a9.53,9.53,0,0,1,2-2,10.63,10.63,0,0,1,3.5-1.61,16.49,16.49,0,0,1,4.94-.63q9,.12,12.59,6.47A17.85,17.85,0,0,1,55,157.86v21.6Z"/><path class="cls-1" d="M93.09,179.46v-5.53H93a12.31,12.31,0,0,1-5,4.81,14.37,14.37,0,0,1-6.77,1.63q-8.78-.19-13.52-5.84a18.67,18.67,0,0,1-4.9-12.85,20.63,20.63,0,0,1,4.56-12.88q4.59-5.93,13.86-6.12A15.66,15.66,0,0,1,88,144.16a12.51,12.51,0,0,1,5,4.51h.12v-5h6.5v35.83Zm.13-17.83a13,13,0,0,0-3.47-9.32,11.66,11.66,0,0,0-8.58-3.51c-4,.08-7,1.49-8.91,4.2a14.36,14.36,0,0,0-3,8.64,12.85,12.85,0,0,0,3.37,8.66,10.67,10.67,0,0,0,8.49,3.95,11.26,11.26,0,0,0,8.64-3.83,12.4,12.4,0,0,0,3.47-8.78Z"/><path class="cls-1" d="M117,179.46h-6.49V149.75h-4.72v-6.12h4.72v-12H117v12h5.7v6.12H117Z"/><path class="cls-1" d="M137.08,179.46h-6.49V149.75h-4.72v-6.12h4.72v-12h6.49v12h5.7v6.12h-5.7Z"/><path class="cls-1" d="M152.45,164.46q1.38,5.13,4.69,7.45a10.93,10.93,0,0,0,6.73,2.34,11.12,11.12,0,0,0,9.89-6h6.52q-2.7,6.78-7.53,9.49a18.94,18.94,0,0,1-9.14,2.65,16.32,16.32,0,0,1-12.45-5.71,19.54,19.54,0,0,1,.06-26.61,16.68,16.68,0,0,1,12.51-5.37,17.05,17.05,0,0,1,12.41,5.24A18.67,18.67,0,0,1,181.4,161c0,1.51-.1,2.66-.18,3.44Zm22.46-5.17a11.33,11.33,0,0,0-3.34-7.24,10.71,10.71,0,0,0-7.91-3.25,10.46,10.46,0,0,0-7.77,3.25,11.5,11.5,0,0,0-3.44,7.24Z"/><path class="cls-1" d="M189.24,179.46V143.63h6.08v3.25h.12a8.79,8.79,0,0,1,2.39-2.4,9.05,9.05,0,0,1,2.5-1.23,12,12,0,0,1,3.94-.57v6.88a10.8,10.8,0,0,0-2.08.25,13.21,13.21,0,0,0-2.63,1,6.43,6.43,0,0,0-2.63,3,12.78,12.78,0,0,0-1.19,6v19.6Z"/><path class="cls-1" d="M224.84,153.16c-.46-2.9-1.94-4.36-4.42-4.36a3.92,3.92,0,0,0-2.85,1,3.4,3.4,0,0,0-1.18,2.78,3.17,3.17,0,0,0,1.61,3,16.23,16.23,0,0,0,3.75,1.64,27,27,0,0,1,2.8.89,12.11,12.11,0,0,1,3.44,2,10.58,10.58,0,0,1,3,3.34,11.27,11.27,0,0,1,1.19,5.37,11.74,11.74,0,0,1-3,8.08c-2,2.21-4.92,3.34-8.64,3.38a12.1,12.1,0,0,1-3.67-.66,9.43,9.43,0,0,1-2.08-.82,17.91,17.91,0,0,1-2-1.17,10.49,10.49,0,0,1-3.18-3.93,12.53,12.53,0,0,1-1.31-6.08h6.49c.29,4.27,2.25,6.46,5.88,6.54a4.82,4.82,0,0,0,3.64-1.36,4.65,4.65,0,0,0,1.38-3.57,4.22,4.22,0,0,0-1.68-3.54,19.07,19.07,0,0,0-4.35-2c-1-.38-2-.81-3.08-1.29a13.77,13.77,0,0,1-3.17-1.81,9.49,9.49,0,0,1-2.5-3,9.88,9.88,0,0,1-1-4.68,9.77,9.77,0,0,1,3-7.17,10.32,10.32,0,0,1,7.79-3.16,14.4,14.4,0,0,1,3.38.44,9.1,9.1,0,0,1,3.38,1.74,8.76,8.76,0,0,1,2.74,3.19,11.78,11.78,0,0,1,1.13,5.11Z"/><path class="cls-1" d="M241.17,179.46v-7.89h6.5v7.89Z"/></g></g></svg>