<?xml version="1.0" encoding="UTF-8" standalone="no"?>
<!DOCTYPE svg PUBLIC "-//W3C//DTD SVG 1.1//EN" "http://www.w3.org/Graphics/SVG/1.1/DTD/svg11.dtd">
<svg xmlns:xlink="http://www.w3.org/1999/xlink" xmlns:serif="http://www.serif.com/" width="current" height="current" viewBox="0 0 1663 1484"
     version="1.1" xmlns="http://www.w3.org/2000/svg" xml:space="preserve"
     style="fill-rule:evenodd;clip-rule:evenodd;stroke-miterlimit:10;">
    <g transform="matrix(4.16667,0,0,4.16667,0,0)">
        <g id="Layer-1" serif:id="Layer 1">
            <g transform="matrix(0,-1,-1,0,123.174,90.333)">
                <path d="M-2.5,-2.5C-3.881,-2.5 -5,-1.381 -5,0C-5,1.381 -3.881,2.5 -2.5,2.5C-1.12,2.5 0,1.381 0,0C0,-1.381 -1.12,-2.5 -2.5,-2.5"
                      style="fill:rgb(191,191,191);fill-rule:nonzero;"/>
            </g>
            <g transform="matrix(1,0,0,1,165.656,70.9087)">
                <path d="M0,-8.875L1.967,-8.875L3.478,-4.726C3.67,-4.174 3.838,-3.586 4.018,-3.01L4.077,-3.01C4.27,-3.586 4.426,-4.174 4.617,-4.726L6.092,-8.875L8.059,-8.875L8.059,0L6.439,0L6.439,-3.706C6.439,-4.545 6.572,-5.781 6.656,-6.621L6.607,-6.621L5.889,-4.534L4.521,-0.804L3.502,-0.804L2.123,-4.534L1.415,-6.621L1.367,-6.621C1.451,-5.781 1.595,-4.545 1.595,-3.706L1.595,0L0,0L0,-8.875Z"
                      style="fill:rgb(38,38,38);fill-rule:nonzero;"/>
            </g>
            <g transform="matrix(1,0,0,1,179.682,65.6915)">
                <path d="M0,1.559L-0.264,0.588C-0.539,-0.336 -0.779,-1.355 -1.043,-2.315L-1.092,-2.315C-1.318,-1.343 -1.583,-0.336 -1.847,0.588L-2.111,1.559L0,1.559ZM0.384,2.938L-2.494,2.938L-3.118,5.217L-4.917,5.217L-2.074,-3.658L0.012,-3.658L2.867,5.217L1.008,5.217L0.384,2.938Z"
                      style="fill:rgb(38,38,38);fill-rule:nonzero;"/>
            </g>
            <g transform="matrix(1,0,0,1,183.008,63.1603)">
                <path d="M0,6.621L1.02,5.398C1.655,5.985 2.495,6.381 3.274,6.381C4.197,6.381 4.689,5.985 4.689,5.362C4.689,4.702 4.15,4.498 3.358,4.163L2.171,3.659C1.271,3.287 0.372,2.567 0.372,1.272C0.372,-0.179 1.644,-1.295 3.442,-1.295C4.474,-1.295 5.506,-0.887 6.225,-0.155L5.325,0.96C4.762,0.493 4.174,0.228 3.442,0.228C2.662,0.228 2.159,0.577 2.159,1.164C2.159,1.8 2.795,2.028 3.551,2.328L4.714,2.819C5.793,3.263 6.5,3.947 6.5,5.23C6.5,6.681 5.289,7.916 3.238,7.916C2.051,7.916 0.863,7.449 0,6.621"
                      style="fill:rgb(38,38,38);fill-rule:nonzero;"/>
            </g>
            <g transform="matrix(1,0,0,1,190.268,63.1603)">
                <path d="M0,6.621L1.02,5.398C1.655,5.985 2.495,6.381 3.274,6.381C4.197,6.381 4.689,5.985 4.689,5.362C4.689,4.702 4.15,4.498 3.358,4.163L2.171,3.659C1.271,3.287 0.372,2.567 0.372,1.272C0.372,-0.179 1.644,-1.295 3.442,-1.295C4.474,-1.295 5.506,-0.887 6.225,-0.155L5.325,0.96C4.762,0.493 4.174,0.228 3.442,0.228C2.662,0.228 2.159,0.577 2.159,1.164C2.159,1.8 2.795,2.028 3.551,2.328L4.714,2.819C5.793,3.263 6.5,3.947 6.5,5.23C6.5,6.681 5.289,7.916 3.238,7.916C2.051,7.916 0.863,7.449 0,6.621"
                      style="fill:rgb(38,38,38);fill-rule:nonzero;"/>
            </g>
            <g transform="matrix(1,0,0,1,169.434,77.6915)">
                <path d="M0,1.559L-0.264,0.588C-0.539,-0.336 -0.779,-1.355 -1.043,-2.315L-1.092,-2.315C-1.318,-1.343 -1.583,-0.336 -1.847,0.588L-2.111,1.559L0,1.559ZM0.384,2.938L-2.494,2.938L-3.118,5.217L-4.917,5.217L-2.074,-3.658L0.012,-3.658L2.867,5.217L1.008,5.217L0.384,2.938Z"
                      style="fill:rgb(38,38,38);fill-rule:nonzero;"/>
            </g>
            <g transform="matrix(1,0,0,1,173.348,82.9087)">
                <path d="M0,-8.875L1.811,-8.875L4.39,-4.15L5.277,-2.231L5.338,-2.231C5.241,-3.154 5.109,-4.33 5.109,-5.337L5.109,-8.875L6.789,-8.875L6.789,0L4.989,0L2.423,-4.75L1.523,-6.656L1.463,-6.656C1.547,-5.697 1.68,-4.582 1.68,-3.562L1.68,0L0,0L0,-8.875Z"
                      style="fill:rgb(38,38,38);fill-rule:nonzero;"/>
            </g>
            <g transform="matrix(1,0,0,1,184.662,75.4604)">
                <path d="M0,6.021C1.655,6.021 2.687,5.133 2.687,2.975C2.687,0.804 1.655,-0.012 0,-0.012L-0.552,-0.012L-0.552,6.021L0,6.021ZM-2.326,-1.427L0.107,-1.427C2.818,-1.427 4.498,-0.023 4.498,2.975C4.498,5.961 2.818,7.448 0.204,7.448L-2.326,7.448L-2.326,-1.427Z"
                      style="fill:rgb(38,38,38);fill-rule:nonzero;"/>
            </g>
            <g transform="matrix(1,0,0,1,165.656,94.9087)">
                <path d="M0,-8.875L1.967,-8.875L3.478,-4.726C3.67,-4.174 3.838,-3.586 4.018,-3.01L4.077,-3.01C4.27,-3.586 4.426,-4.174 4.617,-4.726L6.092,-8.875L8.059,-8.875L8.059,0L6.439,0L6.439,-3.706C6.439,-4.545 6.572,-5.781 6.656,-6.621L6.607,-6.621L5.889,-4.534L4.521,-0.804L3.502,-0.804L2.123,-4.534L1.415,-6.621L1.367,-6.621C1.451,-5.781 1.595,-4.545 1.595,-3.706L1.595,0L0,0L0,-8.875Z"
                      style="fill:rgb(38,38,38);fill-rule:nonzero;"/>
            </g>
            <g transform="matrix(1,0,0,1,179.682,89.6915)">
                <path d="M0,1.559L-0.264,0.588C-0.539,-0.336 -0.779,-1.355 -1.043,-2.315L-1.092,-2.315C-1.318,-1.343 -1.583,-0.336 -1.847,0.588L-2.111,1.559L0,1.559ZM0.384,2.938L-2.494,2.938L-3.118,5.217L-4.917,5.217L-2.074,-3.658L0.012,-3.658L2.867,5.217L1.008,5.217L0.384,2.938Z"
                      style="fill:rgb(38,38,38);fill-rule:nonzero;"/>
            </g>
            <g transform="matrix(1,0,0,1,184.435,93.4338)">
                <path d="M0,-5.925L-2.495,-5.925L-2.495,-7.4L4.293,-7.4L4.293,-5.925L1.774,-5.925L1.774,1.475L0,1.475L0,-5.925Z"
                      style="fill:rgb(38,38,38);fill-rule:nonzero;"/>
            </g>
            <g transform="matrix(1,0,0,1,191.935,93.4338)">
                <path d="M0,-5.925L-2.495,-5.925L-2.495,-7.4L4.293,-7.4L4.293,-5.925L1.774,-5.925L1.774,1.475L0,1.475L0,-5.925Z"
                      style="fill:rgb(38,38,38);fill-rule:nonzero;"/>
            </g>
            <g transform="matrix(1,0,0,1,197.672,94.9087)">
                <path d="M0,-8.875L5.445,-8.875L5.445,-7.4L1.775,-7.4L1.775,-5.349L4.894,-5.349L4.894,-3.862L1.775,-3.862L1.775,-1.487L5.577,-1.487L5.577,0L0,0L0,-8.875Z"
                      style="fill:rgb(38,38,38);fill-rule:nonzero;"/>
            </g>
            <g transform="matrix(1,0,0,1,206.826,90.7945)">
                <path d="M0,-0.647L1.152,-0.647C2.291,-0.647 2.915,-1.127 2.915,-2.074C2.915,-3.034 2.291,-3.357 1.152,-3.357L0,-3.357L0,-0.647ZM3.059,4.114L1.236,0.756L0,0.756L0,4.114L-1.774,4.114L-1.774,-4.761L1.32,-4.761C3.18,-4.761 4.654,-4.113 4.654,-2.074C4.654,-0.743 3.982,0.084 2.963,0.48L5.038,4.114L3.059,4.114Z"
                      style="fill:rgb(38,38,38);fill-rule:nonzero;"/>
            </g>
            <g transform="matrix(1,0,0,1,212.457,87.1603)">
                <path d="M0,6.621L1.019,5.398C1.654,5.985 2.494,6.381 3.273,6.381C4.197,6.381 4.689,5.985 4.689,5.362C4.689,4.702 4.148,4.498 3.357,4.163L2.17,3.659C1.271,3.287 0.371,2.567 0.371,1.272C0.371,-0.179 1.643,-1.295 3.441,-1.295C4.473,-1.295 5.504,-0.887 6.225,-0.155L5.324,0.96C4.761,0.493 4.173,0.228 3.441,0.228C2.662,0.228 2.158,0.577 2.158,1.164C2.158,1.8 2.794,2.028 3.549,2.328L4.713,2.819C5.792,3.263 6.5,3.947 6.5,5.23C6.5,6.681 5.289,7.916 3.238,7.916C2.051,7.916 0.863,7.449 0,6.621"
                      style="fill:rgb(38,38,38);fill-rule:nonzero;"/>
            </g>
            <g transform="matrix(1,0,0,1,118.466,73.3006)">
                <path d="M0,-7.18L0,0L-0.655,0L-0.655,-4.214L-2.319,-4.214L-2.319,-4.749L-0.655,-4.749L-0.655,-7.18L0,-7.18ZM-3.397,-5.277C-3.397,-3.973 -2.583,-2.67 -1.543,-2.175L-1.927,-1.655C-2.743,-2.063 -3.397,-2.918 -3.726,-3.926C-4.038,-2.862 -4.701,-1.959 -5.509,-1.527L-5.909,-2.047C-4.869,-2.566 -4.054,-3.95 -4.054,-5.277L-4.054,-6.564L-3.397,-6.564L-3.397,-5.277Z"
                      style="fill:rgb(63,63,63);fill-rule:nonzero;"/>
            </g>
            <g transform="matrix(1,0,0,1,126.01,73.2926)">
                <path d="M0,-7.172L0,0L-0.632,0L-0.632,-3.757L-1.647,-3.757L-1.647,-0.36L-2.263,-0.36L-2.263,-7.012L-1.647,-7.012L-1.647,-4.294L-0.632,-4.294L-0.632,-7.172L0,-7.172ZM-5.189,-2.311C-4.23,-2.318 -3.551,-2.359 -2.767,-2.526L-2.711,-1.983C-3.566,-1.799 -4.294,-1.767 -5.365,-1.767L-5.837,-1.767L-5.837,-6.3L-3.166,-6.3L-3.166,-5.765L-5.189,-5.765L-5.189,-2.311Z"
                      style="fill:rgb(63,63,63);fill-rule:nonzero;"/>
            </g>
            <g transform="matrix(1,0,0,1,0,-216.411)">
                <path d="M132.282,283.395L128.748,283.395L128.748,284.858L132.282,284.858L132.282,283.395ZM132.93,285.386L128.109,285.386L128.109,282.867L132.93,282.867L132.93,285.386ZM128.748,289.008L133.05,289.008L133.05,289.544L128.092,289.544L128.092,287.497L128.748,287.497L128.748,289.008ZM133.777,286.202L133.777,286.729L130.898,286.729L130.898,288.177L130.243,288.177L130.243,286.729L127.261,286.729L127.261,286.202L133.777,286.202Z"
                      style="fill:rgb(63,63,63);fill-rule:nonzero;"/>
            </g>
            <g transform="matrix(1,0,0,1,118.466,79.7915)">
                <path d="M0,1.375C-1.095,1.143 -2.223,0.399 -2.687,-0.624C-3.15,0.399 -4.27,1.143 -5.373,1.375L-5.646,0.832C-4.39,0.607 -3.03,-0.448 -3.03,-1.639L-3.03,-2.191L-2.343,-2.191L-2.343,-1.639C-2.343,-0.448 -0.976,0.607 0.28,0.832L0,1.375ZM0.6,3.03L0.6,3.566L-5.909,3.566L-5.909,3.03L-3.015,3.03L-3.015,1.287L-2.358,1.287L-2.358,3.03L0.6,3.03Z"
                      style="fill:rgb(63,63,63);fill-rule:nonzero;"/>
            </g>
            <g transform="matrix(1,0,0,1,126.545,82.4857)">
                <path d="M0,-3.558L0,-3.014L-1.062,-3.014L-1.062,-1.047L-1.719,-1.047L-1.719,-5.365L-1.062,-5.365L-1.062,-3.558L0,-3.558ZM-1.639,0.472C-1.639,-0.04 -2.286,-0.336 -3.342,-0.336C-4.413,-0.336 -5.053,-0.04 -5.053,0.472C-5.053,0.984 -4.413,1.287 -3.342,1.287C-2.286,1.287 -1.639,0.984 -1.639,0.472M-3.654,-3.318L-5.684,-3.318L-5.684,-2.134L-3.654,-2.134L-3.654,-3.318ZM-0.982,0.472C-0.982,1.319 -1.887,1.807 -3.342,1.807C-4.805,1.807 -5.709,1.319 -5.709,0.472C-5.709,-0.376 -4.805,-0.864 -3.342,-0.864C-1.887,-0.864 -0.982,-0.376 -0.982,0.472M-3.014,-1.607L-6.332,-1.607L-6.332,-4.909L-5.685,-4.909L-5.685,-3.83L-3.654,-3.83L-3.654,-4.909L-3.014,-4.909L-3.014,-1.607Z"
                      style="fill:rgb(63,63,63);fill-rule:nonzero;"/>
            </g>
            <g transform="matrix(1,0,0,1,133.185,84.3006)">
                <path d="M0,-7.18L0,0L-0.656,0L-0.656,-4.214L-2.318,-4.214L-2.318,-4.749L-0.656,-4.749L-0.656,-7.18L0,-7.18ZM-3.398,-5.277C-3.398,-3.973 -2.582,-2.67 -1.543,-2.175L-1.927,-1.655C-2.742,-2.063 -3.398,-2.918 -3.727,-3.926C-4.037,-2.862 -4.701,-1.959 -5.509,-1.527L-5.908,-2.047C-4.869,-2.566 -4.054,-3.95 -4.054,-5.277L-4.054,-6.564L-3.398,-6.564L-3.398,-5.277Z"
                      style="fill:rgb(63,63,63);fill-rule:nonzero;"/>
            </g>
            <g transform="matrix(0,-1,-1,0,110.5,19)">
                <path d="M-2.5,-2.5C-3.881,-2.5 -5,-1.381 -5,0C-5,1.381 -3.881,2.5 -2.5,2.5C-1.119,2.5 0,1.381 0,0C0,-1.381 -1.119,-2.5 -2.5,-2.5"
                      style="fill:rgb(191,191,191);fill-rule:nonzero;"/>
            </g>
            <g transform="matrix(1,0,0,1,123.332,24.9676)">
                <path d="M0,-7.18L0,0L-0.655,0L-0.655,-4.214L-2.318,-4.214L-2.318,-4.749L-0.655,-4.749L-0.655,-7.18L0,-7.18ZM-3.397,-5.277C-3.397,-3.973 -2.582,-2.67 -1.543,-2.175L-1.926,-1.655C-2.742,-2.063 -3.397,-2.918 -3.726,-3.926C-4.037,-2.862 -4.701,-1.959 -5.508,-1.527L-5.908,-2.047C-4.869,-2.566 -4.053,-3.95 -4.053,-5.277L-4.053,-6.564L-3.397,-6.564L-3.397,-5.277Z"
                      style="fill:rgb(63,63,63);fill-rule:nonzero;"/>
            </g>
            <g transform="matrix(1,0,0,1,130.877,24.9596)">
                <path d="M0,-7.172L0,0L-0.633,0L-0.633,-3.757L-1.648,-3.757L-1.648,-0.36L-2.264,-0.36L-2.264,-7.012L-1.648,-7.012L-1.648,-4.294L-0.633,-4.294L-0.633,-7.172L0,-7.172ZM-5.189,-2.311C-4.23,-2.318 -3.551,-2.359 -2.768,-2.526L-2.711,-1.983C-3.566,-1.799 -4.295,-1.767 -5.365,-1.767L-5.838,-1.767L-5.838,-6.3L-3.167,-6.3L-3.167,-5.765L-5.189,-5.765L-5.189,-2.311Z"
                      style="fill:rgb(63,63,63);fill-rule:nonzero;"/>
            </g>
            <g transform="matrix(1,0,0,1,0,-313.077)">
                <path d="M137.148,331.728L133.615,331.728L133.615,333.191L137.148,333.191L137.148,331.728ZM137.797,333.719L132.975,333.719L132.975,331.2L137.797,331.2L137.797,333.719ZM133.615,337.341L137.916,337.341L137.916,337.877L132.959,337.877L132.959,335.83L133.615,335.83L133.615,337.341ZM138.645,334.535L138.645,335.062L135.766,335.062L135.766,336.51L135.109,336.51L135.109,335.062L132.127,335.062L132.127,334.535L138.645,334.535Z"
                      style="fill:rgb(63,63,63);fill-rule:nonzero;"/>
            </g>
            <g transform="matrix(1,0,0,1,145.996,21.3455)">
                <path d="M0,0.528L-2.927,0.528L-2.927,3.622L-3.59,3.622L-3.59,0.528L-6.484,0.528L-6.484,-0.008L-1.728,-0.008C-1.504,-1.039 -1.504,-1.799 -1.504,-2.471L-1.504,-2.566L-5.678,-2.566L-5.678,-3.094L-0.863,-3.094L-0.863,-2.471C-0.863,-1.799 -0.863,-1.039 -1.063,-0.008L0,-0.008L0,0.528Z"
                      style="fill:rgb(63,63,63);fill-rule:nonzero;"/>
            </g>
            <g transform="matrix(1,0,0,1,152.108,22.8807)">
                <path d="M0,-3.054L0,-5.093L0.663,-5.093L0.663,-0.743L0,-0.743L0,-2.511L-1.431,-2.511L-1.431,-3.054L0,-3.054ZM0.032,0.752C0.032,0.256 -0.616,-0.048 -1.711,-0.048C-2.79,-0.048 -3.438,0.256 -3.438,0.752C-3.438,1.256 -2.79,1.559 -1.711,1.559C-0.616,1.559 0.032,1.256 0.032,0.752M0.687,0.752C0.687,1.592 -0.224,2.071 -1.711,2.071C-3.183,2.071 -4.094,1.592 -4.094,0.752C-4.094,-0.08 -3.183,-0.559 -1.711,-0.559C-0.224,-0.559 0.687,-0.08 0.687,0.752M-1.304,-1.047C-2.127,-1.303 -2.782,-1.839 -3.11,-2.534C-3.414,-1.751 -4.062,-1.143 -4.909,-0.863L-5.229,-1.367C-4.174,-1.727 -3.454,-2.598 -3.454,-3.566L-3.454,-3.701L-5.046,-3.701L-5.046,-4.229L-3.454,-4.229L-3.454,-5.125L-2.798,-5.125L-2.798,-4.229L-1.216,-4.229L-1.216,-3.701L-2.798,-3.701L-2.798,-3.566C-2.798,-2.67 -2.055,-1.871 -0.999,-1.551L-1.304,-1.047Z"
                      style="fill:rgb(63,63,63);fill-rule:nonzero;"/>
            </g>
            <g transform="matrix(0,-1,-1,0,109.5,178)">
                <path d="M-2.5,-2.5C-3.881,-2.5 -5,-1.381 -5,0C-5,1.381 -3.881,2.5 -2.5,2.5C-1.119,2.5 0,1.381 0,0C0,-1.381 -1.119,-2.5 -2.5,-2.5"
                      style="fill:rgb(191,191,191);fill-rule:nonzero;"/>
            </g>
            <g transform="matrix(1,0,0,1,114.227,206.734)">
                <path d="M0,-4.507C0.07,-4.297 0.101,-4.077 0.101,-3.838C0.101,-3.598 0.07,-3.378 0,-3.168L1.729,-3.168L1.729,-4.507L0,-4.507ZM2.988,1.33L2.988,2.169L-3.088,2.169L-3.088,-0.709L-2.059,-0.709L-2.059,1.33L2.988,1.33ZM-2.238,-2.439C-1.469,-2.439 -0.879,-2.998 -0.879,-3.838C-0.879,-4.657 -1.469,-5.217 -2.238,-5.217C-3.027,-5.217 -3.617,-4.657 -3.617,-3.838C-3.617,-2.998 -3.027,-2.439 -2.238,-2.439M-0.439,-2.328C-0.859,-1.839 -1.498,-1.539 -2.238,-1.549C-3.578,-1.549 -4.597,-2.508 -4.597,-3.838C-4.597,-5.167 -3.578,-6.126 -2.238,-6.126C-1.498,-6.126 -0.859,-5.826 -0.439,-5.347L1.729,-5.347L1.729,-6.676L2.76,-6.676L2.76,-0.039L1.729,-0.039L1.729,-2.328L-0.439,-2.328Z"
                      style="fill:rgb(179,179,179);fill-rule:nonzero;"/>
            </g>
            <g transform="matrix(1,0,0,1,0,53.131)">
                <path d="M126.136,155.952L125.096,155.952L125.096,146.917L126.136,146.917L126.136,155.952ZM121.678,150.125C120.959,150.125 120.469,150.465 120.469,151.034C120.469,151.594 120.959,151.944 121.678,151.944C122.398,151.944 122.888,151.594 122.888,151.034C122.888,150.465 122.398,150.125 121.678,150.125M121.678,149.335C122.968,149.335 123.857,150.015 123.857,151.034C123.857,152.054 122.968,152.733 121.678,152.733C120.389,152.733 119.5,152.054 119.5,151.034C119.5,150.015 120.389,149.335 121.678,149.335M124.396,148.895L118.939,148.895L118.939,148.076L121.158,148.076L121.158,147.007L122.188,147.007L122.188,148.076L124.396,148.076L124.396,148.895ZM118.76,153.423C120.439,153.413 122.658,153.423 124.576,153.163L124.656,153.923C122.648,154.272 120.539,154.282 118.89,154.272L118.76,153.423Z"
                      style="fill:rgb(179,179,179);fill-rule:nonzero;"/>
            </g>
            <g transform="matrix(1,0,0,1,136.235,205.955)">
                <path d="M0,-2.899L-1.279,-2.899L-1.279,-0.66L-2.309,-0.66L-2.309,-5.907L-1.279,-5.907L-1.279,-3.749L0,-3.749L0,-2.899ZM-6.026,2.188L-2.288,2.188L-2.288,0.549L-6.026,0.549L-6.026,2.188ZM-7.046,-0.27L-1.279,-0.27L-1.279,3.008L-7.046,3.008L-7.046,-0.27ZM-3.577,-1.03C-4.548,-1.379 -5.257,-2.069 -5.646,-2.949C-6.036,-1.939 -6.786,-1.17 -7.855,-0.78L-8.405,-1.589C-6.976,-2.089 -6.196,-3.298 -6.196,-4.598L-6.196,-5.448L-5.157,-5.448L-5.157,-4.628C-5.157,-3.438 -4.388,-2.299 -3.038,-1.83L-3.577,-1.03Z"
                      style="fill:rgb(179,179,179);fill-rule:nonzero;"/>
            </g>
            <g transform="matrix(1,0,0,1,144.586,209.083)">
                <path d="M0,-9.035L0,0L-1.039,0L-1.039,-4.638L-2.979,-4.638L-2.979,-5.487L-1.039,-5.487L-1.039,-9.035L0,-9.035ZM-2.938,-8.086C-2.938,-5.437 -3.918,-3.169 -6.977,-1.649L-7.525,-2.449C-5.177,-3.608 -4.157,-5.197 -3.988,-7.246L-7.126,-7.246L-7.126,-8.086L-2.938,-8.086Z"
                      style="fill:rgb(179,179,179);fill-rule:nonzero;"/>
            </g>
            <g transform="matrix(1,0,0,1,0,53.121)">
                <path d="M153.756,155.972L152.717,155.972L152.717,146.907L153.756,146.907L153.756,155.972ZM147.859,152.973C149.289,152.963 150.538,152.894 151.967,152.663L152.077,153.503C150.528,153.773 149.179,153.822 147.59,153.822L146.82,153.822L146.82,150.244L149.969,150.244L149.969,148.566L146.801,148.566L146.801,147.726L151.008,147.726L151.008,151.074L147.859,151.074L147.859,152.973Z"
                      style="fill:rgb(179,179,179);fill-rule:nonzero;"/>
            </g>
            <g transform="matrix(1,0,0,1,119.125,181.27)">
                <path d="M0,-3.709C0.064,-3.525 0.096,-3.326 0.096,-3.109C0.096,-2.902 0.064,-2.702 0,-2.518L1.543,-2.518L1.543,-3.709L0,-3.709ZM2.406,1.111L2.406,1.647L-2.383,1.647L-2.383,-0.607L-1.719,-0.607L-1.719,1.111L2.406,1.111ZM-1.742,-1.887C-1.047,-1.887 -0.527,-2.398 -0.527,-3.109C-0.527,-3.821 -1.047,-4.333 -1.742,-4.333C-2.446,-4.333 -2.967,-3.821 -2.967,-3.109C-2.967,-2.398 -2.446,-1.887 -1.742,-1.887M-0.271,-1.99C-0.607,-1.566 -1.127,-1.311 -1.742,-1.311C-2.799,-1.311 -3.59,-2.063 -3.59,-3.109C-3.59,-4.157 -2.799,-4.908 -1.742,-4.908C-1.127,-4.908 -0.615,-4.652 -0.279,-4.237L1.543,-4.237L1.543,-5.356L2.207,-5.356L2.207,-0.063L1.543,-0.063L1.543,-1.99L-0.271,-1.99Z"
                      style="fill:rgb(63,63,63);fill-rule:nonzero;"/>
            </g>
            <g transform="matrix(1,0,0,1,0,2.99)">
                <path d="M128.628,180.087L127.973,180.087L127.973,172.923L128.628,172.923L128.628,180.087ZM125.158,175.322C124.518,175.322 124.07,175.65 124.07,176.153C124.07,176.656 124.518,176.992 125.158,176.992C125.806,176.992 126.254,176.656 126.254,176.153C126.254,175.65 125.806,175.322 125.158,175.322M125.158,174.81C126.165,174.81 126.869,175.346 126.869,176.153C126.869,176.969 126.165,177.496 125.158,177.496C124.15,177.496 123.447,176.969 123.447,176.153C123.447,175.346 124.15,174.81 125.158,174.81M127.332,174.41L122.975,174.41L122.975,173.883L124.83,173.883L124.83,172.994L125.486,172.994L125.486,173.883L127.332,173.883L127.332,174.41ZM122.823,178.128C124.183,178.128 125.965,178.12 127.517,177.912L127.564,178.401C125.965,178.672 124.238,178.68 122.919,178.68L122.823,178.128Z"
                      style="fill:rgb(63,63,63);fill-rule:nonzero;"/>
            </g>
            <g transform="matrix(1,0,0,1,130.503,178.503)">
                <path d="M0,1.231C1.392,1.007 2.559,0.169 2.559,-0.935L0.247,-0.935L0.247,-1.462L2.559,-1.462L2.559,-2.439L3.222,-2.439L3.222,-1.462L5.524,-1.462L5.524,-0.935L3.222,-0.935C3.222,0.169 4.39,1.007 5.78,1.231L5.524,1.751C4.374,1.543 3.342,0.967 2.895,0.088C2.438,0.967 1.407,1.543 0.256,1.751L0,1.231ZM6.148,3.127L6.148,3.67L-0.36,3.67L-0.36,3.127L2.559,3.127L2.559,1.495L3.222,1.495L3.222,3.127L6.148,3.127Z"
                      style="fill:rgb(63,63,63);fill-rule:nonzero;"/>
            </g>
            <g transform="matrix(1,0,0,1,142.532,177.488)">
                <path d="M0,4.285C0,3.781 -0.663,3.502 -1.791,3.502C-2.919,3.502 -3.582,3.781 -3.582,4.285C-3.582,4.789 -2.919,5.068 -1.791,5.068C-0.672,5.068 0,4.789 0,4.285M0.704,1.142L-4.214,1.142L-4.214,-1.295L0.655,-1.295L0.655,-0.768L-3.558,-0.768L-3.558,0.615L0.704,0.615L0.704,1.142ZM0.663,4.285C0.663,5.117 -0.265,5.58 -1.791,5.58C-3.318,5.58 -4.245,5.117 -4.245,4.285C-4.245,3.454 -3.318,2.99 -1.791,2.99C-0.265,2.99 0.663,3.454 0.663,4.285M1.463,2.375L-5.029,2.375L-5.029,1.831L1.463,1.831L1.463,2.375Z"
                      style="fill:rgb(63,63,63);fill-rule:nonzero;"/>
            </g>
            <g transform="matrix(1,0,0,1,151.491,180.519)">
                <path d="M0,-2.087L-1.063,-2.087L-1.063,-0.128L-1.72,-0.128L-1.72,-4.606L-1.063,-4.606L-1.063,-2.631L0,-2.631L0,-2.087ZM-4.493,-0.872C-3.838,-0.872 -3.398,-1.184 -3.398,-1.663C-3.398,-2.135 -3.838,-2.446 -4.493,-2.446C-5.149,-2.446 -5.581,-2.135 -5.581,-1.655C-5.581,-1.175 -5.149,-0.872 -4.493,-0.872M-5.717,0.264L-1.063,0.264L-1.063,2.566L-1.72,2.566L-1.72,0.8L-5.717,0.8L-5.717,0.264ZM-4.493,-0.368C-5.509,-0.368 -6.204,-0.872 -6.204,-1.663C-6.204,-2.446 -5.509,-2.958 -4.493,-2.958C-3.47,-2.958 -2.774,-2.446 -2.774,-1.655C-2.774,-0.872 -3.47,-0.368 -4.493,-0.368M-2.375,-3.326L-6.604,-3.326L-6.604,-3.855L-4.821,-3.855L-4.821,-4.653L-4.166,-4.653L-4.166,-3.855L-2.375,-3.855L-2.375,-3.326Z"
                      style="fill:rgb(63,63,63);fill-rule:nonzero;"/>
            </g>
            <g transform="matrix(1,0,0,1,157.292,181.534)">
                <path d="M0,-4.374L-4.397,-4.374L-4.397,-4.909L0.655,-4.909L0.655,-4.118C0.655,-3.206 0.655,-2.27 0.399,-0.928L-0.248,-1.008C0,-2.287 0,-3.23 0,-4.118L0,-4.374ZM1.415,-0.001L1.415,0.535L-5.069,0.535L-5.069,-0.001L-3.479,-0.001L-3.479,-2.375L-2.831,-2.375L-2.831,-0.001L-1.703,-0.001L-1.703,-2.375L-1.056,-2.375L-1.056,-0.001L1.415,-0.001Z"
                      style="fill:rgb(63,63,63);fill-rule:nonzero;"/>
            </g>
            <g transform="matrix(1,0,0,1,115.791,304.995)">
                <path d="M0,-4.507C0.07,-4.297 0.101,-4.077 0.101,-3.838C0.101,-3.598 0.07,-3.378 0,-3.168L1.729,-3.168L1.729,-4.507L0,-4.507ZM2.988,1.33L2.988,2.169L-3.088,2.169L-3.088,-0.709L-2.059,-0.709L-2.059,1.33L2.988,1.33ZM-2.238,-2.439C-1.469,-2.439 -0.879,-2.998 -0.879,-3.838C-0.879,-4.657 -1.469,-5.217 -2.238,-5.217C-3.027,-5.217 -3.617,-4.657 -3.617,-3.838C-3.617,-2.998 -3.027,-2.439 -2.238,-2.439M-0.439,-2.328C-0.859,-1.839 -1.498,-1.539 -2.238,-1.549C-3.578,-1.549 -4.597,-2.508 -4.597,-3.838C-4.597,-5.167 -3.578,-6.126 -2.238,-6.126C-1.498,-6.126 -0.859,-5.826 -0.439,-5.347L1.729,-5.347L1.729,-6.676L2.76,-6.676L2.76,-0.039L1.729,-0.039L1.729,-2.328L-0.439,-2.328Z"
                      style="fill:rgb(179,179,179);fill-rule:nonzero;"/>
            </g>
            <g transform="matrix(1,0,0,1,0,249.655)">
                <path d="M127.7,57.69L126.66,57.69L126.66,48.655L127.7,48.655L127.7,57.69ZM123.242,51.863C122.523,51.863 122.033,52.202 122.033,52.772C122.033,53.331 122.523,53.682 123.242,53.682C123.963,53.682 124.452,53.331 124.452,52.772C124.452,52.202 123.963,51.863 123.242,51.863M123.242,51.073C124.532,51.073 125.422,51.752 125.422,52.772C125.422,53.791 124.532,54.471 123.242,54.471C121.953,54.471 121.064,53.791 121.064,52.772C121.064,51.752 121.953,51.073 123.242,51.073M125.961,50.633L120.504,50.633L120.504,49.814L122.723,49.814L122.723,48.744L123.752,48.744L123.752,49.814L125.961,49.814L125.961,50.633ZM120.324,55.16C122.004,55.151 124.223,55.16 126.141,54.901L126.221,55.66C124.213,56.01 122.104,56.02 120.454,56.01L120.324,55.16Z"
                      style="fill:rgb(179,179,179);fill-rule:nonzero;"/>
            </g>
            <g transform="matrix(1,0,0,1,0,249.773)">
                <rect x="129.934" y="49.436" width="1.16" height="7.355" style="fill:rgb(179,179,179);"/>
            </g>
            <g transform="matrix(1,0,0,1,132.625,302.856)">
                <path d="M0,0.05C0,-2.348 1.459,-3.788 3.317,-3.788C4.236,-3.788 4.957,-3.347 5.406,-2.858L4.777,-2.118C4.396,-2.509 3.938,-2.778 3.338,-2.778C2.068,-2.778 1.189,-1.719 1.189,0.011C1.189,1.76 2.008,2.829 3.308,2.829C3.977,2.829 4.497,2.529 4.937,2.049L5.557,2.779C4.967,3.458 4.217,3.838 3.268,3.838C1.418,3.838 0,2.459 0,0.05"
                      style="fill:rgb(179,179,179);fill-rule:nonzero;"/>
            </g>
            <g transform="matrix(1,0,0,1,261.304,283.152)">
                <path d="M0,-3.709C0.063,-3.525 0.096,-3.326 0.096,-3.109C0.096,-2.902 0.063,-2.702 0,-2.518L1.543,-2.518L1.543,-3.709L0,-3.709ZM2.406,1.111L2.406,1.647L-2.383,1.647L-2.383,-0.607L-1.72,-0.607L-1.72,1.111L2.406,1.111ZM-1.743,-1.887C-1.048,-1.887 -0.528,-2.398 -0.528,-3.109C-0.528,-3.821 -1.048,-4.333 -1.743,-4.333C-2.446,-4.333 -2.967,-3.821 -2.967,-3.109C-2.967,-2.398 -2.446,-1.887 -1.743,-1.887M-0.272,-1.99C-0.608,-1.566 -1.128,-1.311 -1.743,-1.311C-2.799,-1.311 -3.591,-2.063 -3.591,-3.109C-3.591,-4.157 -2.799,-4.908 -1.743,-4.908C-1.128,-4.908 -0.616,-4.652 -0.28,-4.237L1.543,-4.237L1.543,-5.356L2.206,-5.356L2.206,-0.063L1.543,-0.063L1.543,-1.99L-0.272,-1.99Z"
                      style="fill:rgb(63,63,63);fill-rule:nonzero;"/>
            </g>
            <g transform="matrix(1,0,0,1,0,206.747)">
                <path d="M271.055,78.213L270.43,78.213L270.43,71.04L271.055,71.04L271.055,78.213ZM268.975,71.2L269.591,71.2L269.591,77.86L268.975,77.86L268.975,74.159L267.792,74.159L267.792,73.615L268.975,73.615L268.975,71.2ZM267.088,73.064C267.088,74.215 267.624,75.431 268.567,76.006L268.191,76.518C267.512,76.103 267.032,75.343 266.776,74.471C266.521,75.423 266.001,76.237 265.289,76.678L264.881,76.182C265.865,75.607 266.457,74.319 266.457,73.087L266.457,71.72L267.088,71.72L267.088,73.064Z"
                      style="fill:rgb(63,63,63);fill-rule:nonzero;"/>
            </g>
            <g transform="matrix(1,0,0,1,278.414,284.96)">
                <path d="M0,-7.173L0,0L-0.632,0L-0.632,-3.758L-1.647,-3.758L-1.647,-0.361L-2.263,-0.361L-2.263,-7.013L-1.647,-7.013L-1.647,-4.294L-0.632,-4.294L-0.632,-7.173L0,-7.173ZM-5.189,-2.312C-4.23,-2.319 -3.551,-2.359 -2.767,-2.527L-2.711,-1.984C-3.566,-1.8 -4.294,-1.767 -5.365,-1.767L-5.837,-1.767L-5.837,-6.301L-3.166,-6.301L-3.166,-5.765L-5.189,-5.765L-5.189,-2.312Z"
                      style="fill:rgb(63,63,63);fill-rule:nonzero;"/>
            </g>
            <g transform="matrix(1,0,0,1,266.527,294.106)">
                <path d="M0,-3.456L0,-5.31L0.663,-5.31L0.663,-1.041L0,-1.041L0,-2.92L-1.416,-2.92L-1.416,-3.456L0,-3.456ZM0.031,0.519C0.031,-0.001 -0.624,-0.313 -1.703,-0.313C-2.783,-0.313 -3.438,-0.001 -3.438,0.519C-3.438,1.038 -2.783,1.342 -1.703,1.342C-0.624,1.342 0.031,1.038 0.031,0.519M0.68,0.519C0.68,1.366 -0.232,1.854 -1.703,1.854C-3.175,1.854 -4.094,1.366 -4.094,0.519C-4.094,-0.329 -3.175,-0.817 -1.703,-0.817C-0.232,-0.817 0.68,-0.329 0.68,0.519M-1.344,-1.313C-2.144,-1.601 -2.759,-2.192 -3.07,-2.928C-3.375,-2.097 -4.038,-1.425 -4.878,-1.104L-5.222,-1.624C-4.15,-2.017 -3.414,-2.983 -3.414,-4.016L-3.414,-4.263L-5.014,-4.263L-5.014,-4.791L-1.184,-4.791L-1.184,-4.263L-2.759,-4.263L-2.759,-4.016C-2.759,-3.096 -2.056,-2.192 -1.016,-1.825L-1.344,-1.313Z"
                      style="fill:rgb(63,63,63);fill-rule:nonzero;"/>
            </g>
            <g transform="matrix(1,0,0,1,0,228.923)">
                <path d="M273.646,60.728L270.113,60.728L270.113,62.191L273.646,62.191L273.646,60.728ZM274.295,62.72L269.473,62.72L269.473,60.2L274.295,60.2L274.295,62.72ZM270.113,66.341L274.414,66.341L274.414,66.877L269.457,66.877L269.457,64.83L270.113,64.83L270.113,66.341ZM275.143,63.535L275.143,64.062L272.264,64.062L272.264,65.51L271.607,65.51L271.607,64.062L268.625,64.062L268.625,63.535L275.143,63.535Z"
                      style="fill:rgb(63,63,63);fill-rule:nonzero;"/>
            </g>
            <g transform="matrix(0,-1,-1,0,351.5,307)">
                <path d="M-2.5,-2.5C-3.881,-2.5 -5,-1.381 -5,0C-5,1.381 -3.881,2.5 -2.5,2.5C-1.119,2.5 0,1.381 0,0C0,-1.381 -1.119,-2.5 -2.5,-2.5"
                      style="fill:rgb(77,77,77);fill-rule:nonzero;"/>
            </g>
            <g transform="matrix(0,-1,-1,0,351.5,307)">
                <path d="M-2.5,-2.5C-3.881,-2.5 -5,-1.381 -5,0C-5,1.381 -3.881,2.5 -2.5,2.5C-1.119,2.5 0,1.381 0,0C0,-1.381 -1.119,-2.5 -2.5,-2.5"
                      style="fill:rgb(191,191,191);fill-rule:nonzero;"/>
            </g>
            <g transform="matrix(1,0,0,1,272.803,76.8199)">
                <path d="M0,-3.71C0.064,-3.526 0.096,-3.326 0.096,-3.11C0.096,-2.902 0.064,-2.703 0,-2.519L1.543,-2.519L1.543,-3.71L0,-3.71ZM2.406,1.111L2.406,1.647L-2.383,1.647L-2.383,-0.608L-1.719,-0.608L-1.719,1.111L2.406,1.111ZM-1.742,-1.887C-1.047,-1.887 -0.527,-2.399 -0.527,-3.11C-0.527,-3.822 -1.047,-4.334 -1.742,-4.334C-2.446,-4.334 -2.967,-3.822 -2.967,-3.11C-2.967,-2.399 -2.446,-1.887 -1.742,-1.887M-0.271,-1.991C-0.607,-1.567 -1.127,-1.311 -1.742,-1.311C-2.799,-1.311 -3.59,-2.063 -3.59,-3.11C-3.59,-4.158 -2.799,-4.909 -1.742,-4.909C-1.127,-4.909 -0.615,-4.653 -0.279,-4.238L1.543,-4.238L1.543,-5.357L2.207,-5.357L2.207,-0.064L1.543,-0.064L1.543,-1.991L-0.271,-1.991Z"
                      style="fill:rgb(63,63,63);fill-rule:nonzero;"/>
            </g>
            <g transform="matrix(1,0,0,1,0,-205.918)">
                <path d="M282.554,284.545L281.93,284.545L281.93,277.373L282.554,277.373L282.554,284.545ZM280.475,277.533L281.09,277.533L281.09,284.193L280.475,284.193L280.475,280.491L279.291,280.491L279.291,279.947L280.475,279.947L280.475,277.533ZM278.588,279.396C278.588,280.547 279.123,281.762 280.066,282.338L279.691,282.85C279.012,282.434 278.531,281.674 278.275,280.803C278.02,281.754 277.5,282.57 276.789,283.01L276.381,282.514C277.364,281.939 277.956,280.651 277.956,279.419L277.956,278.052L278.588,278.052L278.588,279.396Z"
                      style="fill:rgb(63,63,63);fill-rule:nonzero;"/>
            </g>
            <g transform="matrix(1,0,0,1,289.914,78.6266)">
                <path d="M0,-7.172L0,0L-0.633,0L-0.633,-3.757L-1.648,-3.757L-1.648,-0.36L-2.264,-0.36L-2.264,-7.012L-1.648,-7.012L-1.648,-4.294L-0.633,-4.294L-0.633,-7.172L0,-7.172ZM-5.189,-2.311C-4.23,-2.318 -3.551,-2.359 -2.768,-2.526L-2.711,-1.983C-3.566,-1.799 -4.295,-1.767 -5.365,-1.767L-5.838,-1.767L-5.838,-6.3L-3.167,-6.3L-3.167,-5.765L-5.189,-5.765L-5.189,-2.311Z"
                      style="fill:rgb(63,63,63);fill-rule:nonzero;"/>
            </g>
            <g transform="matrix(1,0,0,1,0,-183.742)">
                <path d="M277.771,267.692L274.285,267.692L274.285,268.523L277.771,268.523L277.771,267.692ZM278.418,269.043L273.637,269.043L273.637,266.365L274.284,266.365L274.284,267.18L277.771,267.18L277.771,266.365L278.418,266.365L278.418,269.043ZM276.348,270.242L276.348,271.082L278.466,271.082L278.466,273.377L277.811,273.377L277.811,271.61L273.501,271.61L273.501,271.082L275.691,271.082L275.691,270.242L272.773,270.242L272.773,269.707L279.266,269.707L279.266,270.242L276.348,270.242Z"
                      style="fill:rgb(63,63,63);fill-rule:nonzero;"/>
            </g>
            <g transform="matrix(1,0,0,1,0,-183.743)">
                <path d="M285.146,267.061L281.612,267.061L281.612,268.524L285.146,268.524L285.146,267.061ZM285.794,269.052L280.973,269.052L280.973,266.533L285.794,266.533L285.794,269.052ZM281.612,272.674L285.914,272.674L285.914,273.21L280.957,273.21L280.957,271.163L281.612,271.163L281.612,272.674ZM286.642,269.868L286.642,270.395L283.764,270.395L283.764,271.843L283.107,271.843L283.107,270.395L280.125,270.395L280.125,269.868L286.642,269.868Z"
                      style="fill:rgb(63,63,63);fill-rule:nonzero;"/>
            </g>
            <g transform="matrix(1,0,0,1,0,215.922)">
                <path d="M349.948,71.794L349.293,71.794L349.293,66.533L349.948,66.533L349.948,71.794ZM350.164,73.01L350.164,73.545L345.335,73.545L345.335,71.307L345.99,71.307L345.99,73.01L350.164,73.01ZM348.037,70.627C347.222,70.314 346.59,69.667 346.27,68.851C345.967,69.723 345.318,70.419 344.479,70.77L344.135,70.234C345.215,69.819 345.935,68.779 345.935,67.66L345.935,66.932L346.59,66.932L346.59,67.66C346.59,68.74 347.317,69.715 348.381,70.107L348.037,70.627Z"
                      style="fill:rgb(63,63,63);fill-rule:nonzero;"/>
            </g>
            <g transform="matrix(1,0,0,1,352.91,282.983)">
                <path d="M0,5.949L4.277,5.949L4.277,6.484L-0.655,6.484L-0.655,4.525L0,4.525L0,5.949ZM-1.096,2.335C0.248,2.191 1.336,1.607 1.399,0.767L-0.823,0.767L-0.823,0.248L1.432,0.248L1.432,-0.535L2.087,-0.535L2.087,0.248L4.334,0.248L4.334,0.767L2.111,0.767C2.176,1.607 3.263,2.191 4.605,2.335L4.39,2.83C3.215,2.703 2.191,2.247 1.76,1.504C1.328,2.247 0.296,2.703 -0.887,2.83L-1.096,2.335ZM4.998,3.429L4.998,3.958L-1.495,3.958L-1.495,3.429L1.432,3.429L1.432,2.503L2.087,2.503L2.087,3.429L4.998,3.429Z"
                      style="fill:rgb(63,63,63);fill-rule:nonzero;"/>
            </g>
            <g transform="matrix(1,0,0,1,0,238.082)">
                <path d="M335.436,62.545L334.813,62.545L334.813,55.373L335.436,55.373L335.436,62.545ZM333.357,55.533L333.973,55.533L333.973,62.193L333.357,62.193L333.357,58.491L332.174,58.491L332.174,57.947L333.357,57.947L333.357,55.533ZM331.471,57.396C331.471,58.547 332.006,59.762 332.949,60.338L332.573,60.85C331.894,60.434 331.414,59.674 331.158,58.803C330.902,59.754 330.383,60.57 329.671,61.01L329.264,60.514C330.246,59.939 330.838,58.65 330.838,57.42L330.838,56.053L331.471,56.053L331.471,57.396Z"
                      style="fill:rgb(63,63,63);fill-rule:nonzero;"/>
            </g>
            <g transform="matrix(1,0,0,1,0,237.651)">
                <path d="M338.118,59.522L341.78,59.522L341.78,58.163L338.118,58.163L338.118,59.522ZM338.118,56.324L338.118,57.634L341.78,57.634L341.78,56.324L342.42,56.324L342.42,60.058L337.471,60.058L337.471,56.324L338.118,56.324ZM343.203,62.025L336.703,62.025L336.703,61.481L343.203,61.481L343.203,62.025Z"
                      style="fill:rgb(63,63,63);fill-rule:nonzero;"/>
            </g>
            <g transform="matrix(1,0,0,1,350.691,298.26)">
                <path d="M0,-2.598L0,-2.055L-1.063,-2.055L-1.063,0.48L-1.719,0.48L-1.719,-4.805L-1.063,-4.805L-1.063,-2.598L0,-2.598ZM-4.821,1.672L-0.736,1.672L-0.736,2.207L-5.477,2.207L-5.477,0.072L-4.821,0.072L-4.821,1.672ZM-2.343,-0.864C-3.479,-0.672 -4.422,-0.631 -5.749,-0.631L-6.316,-0.631L-6.316,-2.79L-3.75,-2.79L-3.75,-3.806L-6.332,-3.806L-6.332,-4.333L-3.103,-4.333L-3.103,-2.286L-5.669,-2.286L-5.669,-1.167C-4.406,-1.167 -3.494,-1.215 -2.406,-1.407L-2.343,-0.864Z"
                      style="fill:rgb(63,63,63);fill-rule:nonzero;"/>
            </g>
            <g transform="matrix(1,0,0,1,357.308,296.021)">
                <path d="M0,1.583C-1.087,1.335 -2.207,0.567 -2.663,-0.488C-3.118,0.56 -4.237,1.327 -5.317,1.583L-5.612,1.039C-4.357,0.791 -3.007,-0.288 -3.007,-1.512L-3.007,-2.063L-2.319,-2.063L-2.319,-1.512C-2.319,-0.288 -0.96,0.799 0.296,1.039L0,1.583ZM0.616,3.646L-5.885,3.646L-5.885,3.101L0.616,3.101L0.616,3.646Z"
                      style="fill:rgb(63,63,63);fill-rule:nonzero;"/>
            </g>
            <g transform="matrix(1,0,0,1,0,238.082)">
                <path d="M362.373,58.012L364.027,58.012L364.027,57.076L362.373,57.076L362.373,58.012ZM364.06,61.201C364.06,60.682 363.404,60.37 362.316,60.37C361.245,60.37 360.59,60.682 360.59,61.201C360.59,61.721 361.245,62.025 362.316,62.025C363.404,62.025 364.06,61.721 364.06,61.201M364.707,61.201C364.707,62.049 363.796,62.537 362.316,62.537C360.846,62.537 359.934,62.049 359.934,61.201C359.934,60.354 360.846,59.866 362.316,59.866C363.796,59.866 364.707,60.354 364.707,61.201M361.725,57.483L359.79,57.483L359.79,58.659L361.725,58.659L361.725,57.483ZM362.373,59.187L359.143,59.187L359.143,55.82L359.79,55.82L359.79,56.964L361.725,56.964L361.725,55.82L362.373,55.82L362.373,56.548L364.027,56.548L364.027,55.381L364.691,55.381L364.691,59.723L364.027,59.723L364.027,58.547L362.373,58.547L362.373,59.187Z"
                      style="fill:rgb(63,63,63);fill-rule:nonzero;"/>
            </g>
            <g transform="matrix(1,0,0,1,371.356,296.229)">
                <path d="M0,1.463L0,-2.774L0.656,-2.774L0.656,2.687L0,2.687L0,1.95L-1.455,1.95L-1.455,1.463L0,1.463ZM-4.062,-1.239C-4.062,-0.776 -3.598,-0.472 -2.918,-0.472C-2.238,-0.472 -1.775,-0.776 -1.775,-1.239C-1.775,-1.695 -2.238,-1.999 -2.918,-1.999C-3.598,-1.999 -4.062,-1.695 -4.062,-1.239M0.84,3.702L0.84,4.237L-4.229,4.237L-4.229,2.15L-3.574,2.15L-3.574,3.702L0.84,3.702ZM-4.686,-1.239C-4.686,-1.991 -3.966,-2.487 -2.918,-2.487C-1.871,-2.487 -1.151,-1.991 -1.151,-1.239C-1.151,-0.472 -1.871,0.016 -2.918,0.016C-3.966,0.016 -4.686,-0.472 -4.686,-1.239M-3.174,1.048C-3.886,1.079 -4.573,1.087 -5.165,1.087L-5.253,0.544C-3.926,0.544 -2.15,0.527 -0.631,0.335L-0.576,0.808C-1.207,0.903 -1.871,0.976 -2.519,1.015L-2.519,2.431L-3.174,2.431L-3.174,1.048Z"
                      style="fill:rgb(63,63,63);fill-rule:nonzero;"/>
            </g>
            <g transform="matrix(0,1,1,0,278.065,178.333)">
                <path d="M-178,-178L178,-178"
                      style="fill:none;fill-rule:nonzero;stroke:rgb(135,135,135);stroke-width:5px;"/>
            </g>
            <g transform="matrix(1,0,0,1,100.065,102.833)">
                <path d="M0,0L168.436,0" style="fill:none;fill-rule:nonzero;stroke:rgb(135,135,135);stroke-width:5px;"/>
            </g>
            <g transform="matrix(0,-1,-1,0,171.231,76.6665)">
                <path d="M-26.167,26.167L26.167,26.167"
                      style="fill:none;fill-rule:nonzero;stroke:rgb(135,135,135);stroke-width:5px;"/>
            </g>
            <g transform="matrix(-1,0,0,1,-0.4995,204.833)">
                <path d="M-100.564,0L0,0"
                      style="fill:none;fill-rule:nonzero;stroke:rgb(135,135,135);stroke-width:5px;"/>
            </g>
            <g transform="matrix(1,0,0,1,-0.5,318.833)">
                <path d="M0,0L399,0" style="fill:none;fill-rule:nonzero;stroke:rgb(135,135,135);stroke-width:5px;"/>
            </g>
            <g transform="matrix(1,0,0,1,0,43.642)">
                <path d="M267.786,160.339L265.26,160.339L265.26,147.592L267.786,147.592L267.786,160.339ZM268.224,162.771L268.224,164.766L256.142,164.766L256.142,159.124L258.648,159.124L258.648,162.771L268.224,162.771ZM262.695,157.699C260.758,157.035 259.428,155.743 258.668,154.109C257.87,155.876 256.502,157.3 254.47,158.004L253.196,156.008C256.104,155.021 257.357,152.57 257.357,150.253L257.357,148.543L259.902,148.543L259.902,150.253C259.902,152.551 261.118,154.793 263.968,155.705L262.695,157.699Z"
                      style="fill:rgb(226,226,226);fill-rule:nonzero;"/>
            </g>
            <g transform="matrix(1,0,0,1,280.479,193.267)">
                <path d="M0,13.146L9.613,13.146L9.613,15.141L-2.507,15.141L-2.507,10.334L0,10.334L0,13.146ZM-3.761,4.426C-0.038,4.161 1.71,2.907 2.014,1.596L-2.906,1.596L-2.906,-0.341L2.204,-0.341L2.204,-1.995L4.712,-1.995L4.712,-0.341L9.879,-0.341L9.879,1.596L4.921,1.596C5.225,2.907 6.953,4.161 10.695,4.426L9.917,6.345C6.726,6.06 4.541,5.073 3.477,3.61C2.394,5.073 0.229,6.06 -2.963,6.345L-3.761,4.426ZM11.38,7.372L11.38,9.347L-4.426,9.347L-4.426,7.372L2.204,7.372L2.204,5.471L4.712,5.471L4.712,7.372L11.38,7.372Z"
                      style="fill:rgb(226,226,226);fill-rule:nonzero;"/>
            </g>
            <g transform="matrix(1,0,0,1,310.252,195.169)">
                <path d="M0,10.352C0,9.44 -1.197,9.022 -3.534,9.022C-5.87,9.022 -7.067,9.44 -7.067,10.352C-7.067,11.264 -5.87,11.663 -3.534,11.663C-1.197,11.663 0,11.264 0,10.352M2.545,10.352C2.545,12.404 0.247,13.563 -3.534,13.563C-7.314,13.563 -9.594,12.404 -9.594,10.352C-9.594,8.282 -7.314,7.123 -3.534,7.123C0.247,7.123 2.545,8.282 2.545,10.352M4.445,4.273L4.445,6.268L-11.38,6.268L-11.38,4.273L-4.73,4.273L-4.73,2.83L-9.461,2.83L-9.461,-3.211L2.545,-3.211L2.545,-1.217L-6.973,-1.217L-6.973,0.834L2.641,0.834L2.641,2.83L-2.223,2.83L-2.223,4.273L4.445,4.273Z"
                      style="fill:rgb(226,226,226);fill-rule:nonzero;"/>
            </g>
            <g transform="matrix(1,0,0,1,26.5625,264.983)">
                <path d="M0,-8.341C0.076,-7.98 0.133,-7.6 0.133,-7.2C0.133,-6.82 0.095,-6.422 0,-6.08L2.812,-6.08L2.812,-8.341L0,-8.341ZM5.718,2.43L5.718,4.426L-6.212,4.426L-6.212,-1.217L-3.705,-1.217L-3.705,2.43L5.718,2.43ZM-4.483,-4.845C-3.191,-4.845 -2.242,-5.737 -2.242,-7.2C-2.242,-8.645 -3.191,-9.537 -4.483,-9.537C-5.757,-9.537 -6.706,-8.645 -6.706,-7.2C-6.706,-5.737 -5.757,-4.845 -4.483,-4.845M-1.045,-4.085C-1.9,-3.193 -3.116,-2.66 -4.483,-2.66C-7.067,-2.66 -9.081,-4.579 -9.081,-7.2C-9.081,-9.803 -7.067,-11.722 -4.483,-11.722C-3.116,-11.722 -1.937,-11.209 -1.083,-10.335L2.812,-10.335L2.812,-12.767L5.319,-12.767L5.319,0.037L2.812,0.037L2.812,-4.085L-1.045,-4.085Z"
                      style="fill:rgb(226,226,226);fill-rule:nonzero;"/>
            </g>
            <g transform="matrix(1,0,0,1,56.1445,263.766)">
                <path d="M0,-5.813L-2.318,-5.813L-2.318,-1.709L-4.826,-1.709L-4.826,-11.55L-2.318,-11.55L-2.318,-7.865L0,-7.865L0,-5.813ZM-11.247,3.781L-4.768,3.781L-4.768,1.064L-11.247,1.064L-11.247,3.781ZM-13.717,-0.893L-2.319,-0.893L-2.319,5.737L-13.717,5.737L-13.717,-0.893ZM-5.908,-3.305C-8.758,-2.736 -11.437,-2.565 -13.906,-2.565L-15.388,-2.565L-15.388,-10.734L-12.881,-10.734L-12.881,-4.655C-10.791,-4.693 -8.549,-4.864 -6.193,-5.319L-5.908,-3.305Z"
                      style="fill:rgb(226,226,226);fill-rule:nonzero;"/>
            </g>
            <g transform="matrix(1,0,0,1,74.252,256.168)">
                <path d="M0,10.352C0,9.44 -1.197,9.022 -3.534,9.022C-5.87,9.022 -7.067,9.44 -7.067,10.352C-7.067,11.264 -5.87,11.663 -3.534,11.663C-1.197,11.663 0,11.264 0,10.352M2.545,10.352C2.545,12.404 0.247,13.563 -3.534,13.563C-7.314,13.563 -9.594,12.404 -9.594,10.352C-9.594,8.282 -7.314,7.123 -3.534,7.123C0.247,7.123 2.545,8.282 2.545,10.352M4.445,4.273L4.445,6.268L-11.38,6.268L-11.38,4.273L-4.73,4.273L-4.73,2.83L-9.461,2.83L-9.461,-3.211L2.545,-3.211L2.545,-1.217L-6.973,-1.217L-6.973,0.834L2.641,0.834L2.641,2.83L-2.223,2.83L-2.223,4.273L4.445,4.273Z"
                      style="fill:rgb(226,226,226);fill-rule:nonzero;"/>
            </g>
            <g transform="matrix(1,0,0,1,26.5625,85.9821)">
                <path d="M0,-8.34C0.076,-7.979 0.133,-7.599 0.133,-7.2C0.133,-6.82 0.095,-6.421 0,-6.079L2.812,-6.079L2.812,-8.34L0,-8.34ZM5.718,2.431L5.718,4.426L-6.212,4.426L-6.212,-1.216L-3.705,-1.216L-3.705,2.431L5.718,2.431ZM-4.483,-4.844C-3.191,-4.844 -2.242,-5.737 -2.242,-7.2C-2.242,-8.644 -3.191,-9.537 -4.483,-9.537C-5.757,-9.537 -6.706,-8.644 -6.706,-7.2C-6.706,-5.737 -5.757,-4.844 -4.483,-4.844M-1.045,-4.085C-1.9,-3.192 -3.116,-2.66 -4.483,-2.66C-7.067,-2.66 -9.081,-4.578 -9.081,-7.2C-9.081,-9.802 -7.067,-11.721 -4.483,-11.721C-3.116,-11.721 -1.937,-11.208 -1.083,-10.335L2.812,-10.335L2.812,-12.766L5.319,-12.766L5.319,0.038L2.812,0.038L2.812,-4.085L-1.045,-4.085Z"
                      style="fill:rgb(226,226,226);fill-rule:nonzero;"/>
            </g>
            <g transform="matrix(1,0,0,1,0,-192.073)">
                <path d="M54.644,282.785L52.136,282.785L52.136,265.288L54.644,265.288L54.644,282.785ZM45.771,271.957C44.612,271.957 43.834,272.451 43.834,273.382C43.834,274.294 44.612,274.787 45.771,274.787C46.911,274.787 47.69,274.294 47.69,273.382C47.69,272.451 46.911,271.957 45.771,271.957M45.771,270.057C48.279,270.057 50.065,271.387 50.065,273.382C50.065,275.339 48.279,276.687 45.771,276.687C43.245,276.687 41.459,275.339 41.459,273.382C41.459,271.387 43.245,270.057 45.771,270.057M50.996,269.373L40.51,269.373L40.51,267.417L44.479,267.417L44.479,265.498L46.987,265.498L46.987,267.417L50.996,267.417L50.996,269.373ZM40.148,277.751C43.34,277.751 47.558,277.77 51.243,277.276L51.414,279.1C47.538,279.822 43.549,279.803 40.452,279.784L40.148,277.751Z"
                      style="fill:rgb(226,226,226);fill-rule:nonzero;"/>
            </g>
            <g transform="matrix(1,0,0,1,74.252,77.167)">
                <path d="M0,10.354C0,9.442 -1.197,9.024 -3.534,9.024C-5.87,9.024 -7.067,9.442 -7.067,10.354C-7.067,11.266 -5.87,11.665 -3.534,11.665C-1.197,11.665 0,11.266 0,10.354M2.545,10.354C2.545,12.406 0.247,13.564 -3.534,13.564C-7.314,13.564 -9.594,12.406 -9.594,10.354C-9.594,8.283 -7.314,7.125 -3.534,7.125C0.247,7.125 2.545,8.283 2.545,10.354M4.445,4.275L4.445,6.27L-11.38,6.27L-11.38,4.275L-4.73,4.275L-4.73,2.831L-9.461,2.831L-9.461,-3.21L2.545,-3.21L2.545,-1.215L-6.973,-1.215L-6.973,0.836L2.641,0.836L2.641,2.831L-2.223,2.831L-2.223,4.275L4.445,4.275Z"
                      style="fill:rgb(226,226,226);fill-rule:nonzero;"/>
            </g>
            <g transform="matrix(-1,0,0,1,316,-174)">
                <rect x="155" y="262" width="6" height="6" style="fill:rgb(77,77,77);"/>
            </g>
            <g transform="matrix(1,0,0,1,262,301)">
                <path d="M0,11L0,0L12,0L12,11L8.5,11L8.5,6.388C8.5,5.281 7.604,4.385 6.497,4.385L5.499,4.385C4.395,4.385 3.5,5.279 3.5,6.384L3.5,11L0,11Z"
                      style="fill:rgb(178,178,178);fill-rule:nonzero;"/>
            </g>
            <g transform="matrix(1,0,0,1,274,95)">
                <path d="M0,11L0,0L12,0L12,11L8.5,11L8.5,6.388C8.5,5.281 7.604,4.385 6.497,4.385L5.499,4.385C4.395,4.385 3.5,5.279 3.5,6.384L3.5,11L0,11Z"
                      style="fill:rgb(178,178,178);fill-rule:nonzero;"/>
            </g>
        </g>
    </g>
</svg>
